<?xml version="1.0" encoding="UTF-8" standalone="no"?>
<!-- Created with Inkscape (http://www.inkscape.org/) -->

<svg
   width="180"
   height="180"
   viewBox="0 0 47.625 47.625"
   version="1.1"
   id="svg5"
   inkscape:version="1.1 (c4e8f9ed74, 2021-05-24)"
   sodipodi:docname="drawing.svg"
   inkscape:export-filename="/home/adi1090x/bitmap.png"
   inkscape:export-xdpi="136.53"
   inkscape:export-ydpi="136.53"
   xmlns:inkscape="http://www.inkscape.org/namespaces/inkscape"
   xmlns:sodipodi="http://sodipodi.sourceforge.net/DTD/sodipodi-0.dtd"
   xmlns:xlink="http://www.w3.org/1999/xlink"
   xmlns="http://www.w3.org/2000/svg"
   xmlns:svg="http://www.w3.org/2000/svg">
  <sodipodi:namedview
     id="namedview7"
     pagecolor="#ffffff"
     bordercolor="#666666"
     borderopacity="1.0"
     inkscape:pageshadow="2"
     inkscape:pageopacity="0.0"
     inkscape:pagecheckerboard="0"
     inkscape:document-units="px"
     showgrid="false"
     inkscape:zoom="3.6076253"
     inkscape:cx="79.13793"
     inkscape:cy="78.583549"
     inkscape:window-width="1900"
     inkscape:window-height="986"
     inkscape:window-x="10"
     inkscape:window-y="48"
     inkscape:window-maximized="1"
     inkscape:current-layer="layer1" />
  <defs
     id="defs2">
    <linearGradient
       inkscape:collect="always"
       xlink:href="#linearGradient1303"
       id="linearGradient1305"
       x1="-15.25123"
       y1="194.95467"
       x2="139.77541"
       y2="42.713833"
       gradientUnits="userSpaceOnUse"
       gradientTransform="matrix(0.2627478,0,0,0.26269262,0.1651542,0.1691276)" />
    <linearGradient
       inkscape:collect="always"
       id="linearGradient1303">
      <stop
         style="stop-color:#62aeef;stop-opacity:1;"
         offset="0"
         id="stop1299" />
      <stop
         style="stop-color:#98c379;stop-opacity:1"
         offset="1"
         id="stop1301" />
    </linearGradient>
  </defs>
  <g
     inkscape:label="Layer 1"
     inkscape:groupmode="layer"
     id="layer1">
    <path
       id="path53"
       style="fill:url(#linearGradient1305);fill-opacity:1;stroke-width:0.262714"
       d="m 23.808357,1.984375 v 9.871e-4 c -1.943473,4.7638023 -3.115138,7.8802829 -5.279081,12.5025119 1.882291,0.951095 3.529672,2.46507 5.599303,4.892649 C 21.77518,17.519204 19.940548,16.395214 17.896528,15.817777 15.127232,21.595036 10.78858,29.824493 1.984375,45.64059 4.5943707,44.109854 19.350119,40.256705 18.00994,36.767509 17.648369,35.896349 16.920923,35.780585 15.801215,35.382733 v -2.216981 c 1.121764,-0.399221 1.847154,-0.513452 2.208725,-1.385293 0.362261,-0.873211 -0.0703,-1.467731 -0.581433,-2.543297 l 1.567764,-1.566921 c 1.080593,0.513783 1.671288,0.94298 2.543315,0.580797 h 5.44e-4 c 0.871343,-0.361494 0.986281,-1.086731 1.385581,-2.208259 h 2.217449 c 0.400681,1.127019 0.514417,1.847447 1.385075,2.208259 h 5.43e-4 c 0.874085,0.362183 1.472843,-0.07181 2.543831,-0.580797 l 1.567251,1.566921 c -0.512519,1.078997 -0.942495,1.671452 -0.580921,2.543297 v 5.44e-4 c 0.360203,0.869102 1.075983,0.982128 2.20873,1.384782 v 2.216976 c -7.330049,4.095471 9.799825,8.844259 13.372956,10.257864 -1.346033,-2.477618 -2.547686,-4.711264 -3.694902,-6.838238 -1.807233,-1.400431 -3.692351,-3.222834 -7.537576,-5.195871 2.642923,0.686613 4.535334,1.478798 6.010356,2.364234 C 28.753232,14.256571 27.808592,11.371206 23.808357,1.984375 Z m 0.225793,29.54625 c -1.515584,0 -2.743972,1.228643 -2.743972,2.743905 0,1.515267 1.228388,2.743395 2.743972,2.743395 1.515582,0 2.744487,-1.228128 2.744487,-2.743395 0,-1.515262 -1.228905,-2.743905 -2.744487,-2.743905 z"
       sodipodi:nodetypes="cccccccccccccccccccccccccccccsssss" />
    <path
       id="path876"
       style="fill:#ff0000;fill-opacity:1;stroke-width:0.137523"
       d="m -12.390742,-2.5830994 a 6.6956529,6.4916124 0 0 1 6.6777369,-6.4915868 6.6956529,6.4916124 0 0 1 6.7134731,6.4568463 M -5.9928082,-45.230774 v 9.77e-4 c -1.9254878,4.719725 -3.0863072,7.807373 -5.2302218,12.386834 1.8648702,0.942295 3.4970083,2.442263 5.5474838,4.847383 -2.3316248,-1.844146 -4.1492794,-2.957739 -6.1743818,-3.529832 -2.74367,5.723806 -7.042175,13.877122 -15.764912,29.5468695 2.585844,-1.5165576 17.205051,-5.3340565 15.877273,-8.7909605 -0.35822,-0.863097 -1.078936,-0.977795 -2.188282,-1.37197 v -2.196462 c 1.111384,-0.395533 1.830062,-0.508707 2.188282,-1.372487 0.358911,-0.865132 -0.06964,-1.454149 -0.576049,-2.519766 l 1.553254,-1.552401 c 1.0705981,0.509032 1.6558267,0.934256 2.5197825,0.575425 h 5.056e-4 c 0.8632797,-0.35815 0.9771587,-1.076677 1.3727637,-2.187829 h 2.1969322 c 0.396962,1.116593 0.509656,1.830355 1.372255,2.187829 h 5.05e-4 c 0.865999,0.358831 1.459212,-0.07116 2.52028999,-0.575425 l 1.55275,1.552423 c -0.507779,1.069016 -0.933774,1.655988 -0.575549,2.519767 v 4.38e-4 c 0.356872,0.861066 1.06602801,0.973048 2.18828701,1.371974 v 2.1965 c -7.262208,4.0575584 9.709161,8.7623921 13.249231,10.1629209 -1.333575,-2.454687 -2.524114,-4.6676597 -3.660703,-6.7749445 -1.790528,-1.3874714 -3.658194,-3.1930154 -7.467832,-5.1478024 2.618462,0.680258 4.493363,1.465116 5.954743,2.34236 -11.557282,-21.513171 -12.49318,-24.371839 -16.4564072,-33.671821 z m 0.223713,29.272881 c -1.5015568,0 -2.7185799,1.217271 -2.7185799,2.718513 0,1.501247 1.2170231,2.718015 2.7185799,2.718015 1.5015572,0 2.7190802,-1.216768 2.7190802,-2.718015 0,-1.501242 -1.217523,-2.718513 -2.7190802,-2.718513 z" />
  </g>
</svg>
